<svg version="1.1" id="Layer_1" xmlns="http://www.w3.org/2000/svg" xmlns:xlink="http://www.w3.org/1999/xlink" x="0px" y="0px"
	 width="100%" viewBox="0 0 968 946" enable-background="new 0 0 968 946" xml:space="preserve">
<path fill="#1E1E1E" opacity="1.000000" stroke="none" 
	d="
M517.000000,947.000000 
	C344.666656,947.000000 172.833328,947.000000 1.000000,947.000000 
	C1.000000,631.666687 1.000000,316.333344 1.000000,1.000000 
	C323.666656,1.000000 646.333313,1.000000 969.000000,1.000000 
	C969.000000,316.333344 969.000000,631.666687 969.000000,947.000000 
	C818.500000,947.000000 668.000000,947.000000 517.000000,947.000000 
M216.142044,814.577148 
	C262.925415,787.535950 309.375854,759.897766 356.563599,733.581726 
	C446.334717,683.517334 538.202820,637.731018 634.641724,601.679993 
	C654.112488,594.401428 647.061157,593.888977 664.675415,604.897461 
	C698.488525,626.029602 735.107605,634.217346 774.538391,627.140381 
	C803.873474,621.875488 829.116760,607.538025 852.257385,589.362244 
	C857.153198,585.516846 861.255066,580.486572 865.102844,575.521851 
	C870.826233,568.137207 867.300537,555.057678 858.625977,551.250122 
	C854.253235,549.330872 849.554688,547.820129 844.851746,547.046387 
	C826.599121,544.043396 808.110107,544.180176 790.129272,547.729858 
	C762.763123,553.132263 735.632996,559.834961 708.584900,566.703186 
	C693.470398,570.541077 678.717896,575.809082 663.814270,580.471008 
	C658.188049,582.230957 653.296509,582.319702 649.083374,576.987244 
	C630.681641,553.696594 617.202393,528.026123 610.259216,499.039612 
	C609.486938,495.815521 610.238037,494.063568 612.959717,492.059753 
	C651.301453,463.831543 689.042603,434.758423 727.940552,407.323883 
	C760.682129,384.231476 794.375061,362.425171 828.305969,341.098206 
	C868.209717,316.017151 907.883057,290.689941 944.718872,261.183228 
	C947.572754,258.897217 950.267334,256.399841 952.899353,253.859085 
	C953.479736,253.298767 953.478271,252.135620 953.744690,251.250031 
	C952.728882,250.976242 951.491638,250.189651 950.735168,250.516342 
	C947.237671,252.026855 943.756714,253.648712 940.479736,255.585754 
	C891.380737,284.608643 842.316711,313.690674 793.235657,342.743958 
	C791.052002,344.036530 788.784790,345.187805 785.607849,346.923096 
	C786.964966,343.350494 788.026672,340.952850 788.791626,338.464020 
	C790.733337,332.146423 789.572388,329.603302 784.157288,325.790588 
	C778.752869,321.985413 773.021118,320.614105 766.698914,322.566742 
	C750.841064,327.464478 734.800598,331.876923 719.220764,337.548126 
	C680.025330,351.815491 643.862305,372.386536 607.498901,392.490479 
	C605.990967,393.324158 604.441406,394.082458 602.025574,395.335144 
	C602.025574,386.251343 602.206299,378.119843 601.996948,369.998413 
	C600.328857,305.281860 606.771118,241.299393 618.714417,177.749435 
	C626.333313,137.209320 633.398254,96.563797 640.497742,55.928181 
	C642.700317,43.320862 642.959778,30.728939 636.919006,18.806433 
	C634.401306,13.837266 630.860352,12.360474 626.551819,15.892712 
	C622.526306,19.192846 618.755859,23.248857 616.123596,27.709974 
	C610.810425,36.714657 606.490906,46.298519 601.507080,55.505802 
	C572.132385,109.773827 545.029114,165.152954 523.068054,222.840225 
	C487.010468,317.556305 448.555725,411.280701 409.214661,504.665009 
	C404.109680,516.782715 396.783905,525.553955 386.187378,532.909119 
	C315.684814,581.845825 247.797516,634.216858 182.323196,689.699646 
	C155.512970,712.418518 127.955551,734.321899 104.145271,760.375366 
	C87.059174,779.071167 70.093170,797.782410 57.472523,820.043884 
	C53.566998,826.932800 53.668022,832.512268 57.520996,838.981812 
	C59.413891,842.160095 61.609604,843.862671 65.115250,843.156494 
	C71.926109,841.784546 78.948860,840.855713 85.410065,838.463623 
	C111.413292,828.836487 135.547516,815.310364 158.725204,800.348694 
	C198.138565,774.906677 236.958054,748.544739 276.032074,722.576843 
	C277.795837,721.404724 279.609161,720.307190 281.399384,719.174927 
	C281.745087,719.669739 282.090790,720.164490 282.436493,720.659302 
	C280.349182,722.386597 278.287781,724.146301 276.170807,725.836487 
	C197.036942,789.015198 117.894623,852.183289 38.773705,915.378174 
	C36.046326,917.556580 33.190945,919.729797 31.059690,922.429871 
	C30.088614,923.659973 29.979630,926.734497 30.873125,927.936401 
	C31.720547,929.076233 34.740311,929.690796 36.185040,929.077209 
	C39.510845,927.664673 42.475883,925.390442 45.559792,923.422729 
	C102.216423,887.272827 158.869049,851.116699 216.142044,814.577148 
z"/>
<path fill="#FBFBFB" opacity="1.000000" stroke="none" 
	d="
M215.832275,814.769470 
	C158.869049,851.116699 102.216423,887.272827 45.559792,923.422729 
	C42.475883,925.390442 39.510845,927.664673 36.185040,929.077209 
	C34.740311,929.690796 31.720547,929.076233 30.873125,927.936401 
	C29.979630,926.734497 30.088614,923.659973 31.059690,922.429871 
	C33.190945,919.729797 36.046326,917.556580 38.773705,915.378174 
	C117.894623,852.183289 197.036942,789.015198 276.170807,725.836487 
	C278.287781,724.146301 280.349182,722.386597 282.436493,720.659302 
	C282.090790,720.164490 281.745087,719.669739 281.399384,719.174927 
	C279.609161,720.307190 277.795837,721.404724 276.032074,722.576843 
	C236.958054,748.544739 198.138565,774.906677 158.725204,800.348694 
	C135.547516,815.310364 111.413292,828.836487 85.410065,838.463623 
	C78.948860,840.855713 71.926109,841.784546 65.115250,843.156494 
	C61.609604,843.862671 59.413891,842.160095 57.520996,838.981812 
	C53.668022,832.512268 53.566998,826.932800 57.472523,820.043884 
	C70.093170,797.782410 87.059174,779.071167 104.145271,760.375366 
	C127.955551,734.321899 155.512970,712.418518 182.323196,689.699646 
	C247.797516,634.216858 315.684814,581.845825 386.187378,532.909119 
	C396.783905,525.553955 404.109680,516.782715 409.214661,504.665009 
	C448.555725,411.280701 487.010468,317.556305 523.068054,222.840225 
	C545.029114,165.152954 572.132385,109.773827 601.507080,55.505802 
	C606.490906,46.298519 610.810425,36.714657 616.123596,27.709974 
	C618.755859,23.248857 622.526306,19.192846 626.551819,15.892712 
	C630.860352,12.360474 634.401306,13.837266 636.919006,18.806433 
	C642.959778,30.728939 642.700317,43.320862 640.497742,55.928181 
	C633.398254,96.563797 626.333313,137.209320 618.714417,177.749435 
	C606.771118,241.299393 600.328857,305.281860 601.996948,369.998413 
	C602.206299,378.119843 602.025574,386.251343 602.025574,395.335144 
	C604.441406,394.082458 605.990967,393.324158 607.498901,392.490479 
	C643.862305,372.386536 680.025330,351.815491 719.220764,337.548126 
	C734.800598,331.876923 750.841064,327.464478 766.698914,322.566742 
	C773.021118,320.614105 778.752869,321.985413 784.157288,325.790588 
	C789.572388,329.603302 790.733337,332.146423 788.791626,338.464020 
	C788.026672,340.952850 786.964966,343.350494 785.607849,346.923096 
	C788.784790,345.187805 791.052002,344.036530 793.235657,342.743958 
	C842.316711,313.690674 891.380737,284.608643 940.479736,255.585754 
	C943.756714,253.648712 947.237671,252.026855 950.735168,250.516342 
	C951.491638,250.189651 952.728882,250.976242 953.744751,251.250031 
	C953.478271,252.135620 953.479736,253.298767 952.899353,253.859085 
	C950.267334,256.399841 947.572754,258.897217 944.718872,261.183228 
	C907.883057,290.689941 868.209717,316.017151 828.305969,341.098206 
	C794.375061,362.425171 760.682129,384.231476 727.940552,407.323883 
	C689.042603,434.758423 651.301453,463.831543 612.959717,492.059753 
	C610.238037,494.063568 609.486938,495.815521 610.259216,499.039612 
	C617.202393,528.026123 630.681641,553.696594 649.083374,576.987244 
	C653.296509,582.319702 658.188049,582.230957 663.814270,580.471008 
	C678.717896,575.809082 693.470398,570.541077 708.584900,566.703186 
	C735.632996,559.834961 762.763123,553.132263 790.129272,547.729858 
	C808.110107,544.180176 826.599121,544.043396 844.851746,547.046387 
	C849.554688,547.820129 854.253235,549.330872 858.625977,551.250122 
	C867.300537,555.057678 870.826233,568.137207 865.102844,575.521851 
	C861.255066,580.486572 857.153198,585.516846 852.257385,589.362244 
	C829.116760,607.538025 803.873474,621.875488 774.538391,627.140381 
	C735.107605,634.217346 698.488525,626.029602 664.675415,604.897461 
	C647.061157,593.888977 654.112488,594.401428 634.641724,601.679993 
	C538.202820,637.731018 446.334717,683.517334 356.563599,733.581726 
	C309.375854,759.897766 262.925415,787.535950 215.832275,814.769470 
M286.841095,715.064941 
	C286.867737,715.453796 286.894379,715.842651 286.921082,716.231567 
	C287.523560,715.992310 288.126038,715.753052 289.037476,715.380310 
	C289.228912,715.247620 289.362946,715.071289 290.043091,714.582703 
	C290.175751,714.078918 290.308411,713.575134 290.441071,713.071350 
	C289.910675,713.330505 289.380280,713.589661 288.336975,713.919861 
	C288.099182,714.154175 287.861359,714.388428 286.841095,715.064941 
M165.119400,833.416626 
	C212.248352,805.333008 259.385406,777.262878 306.474243,749.112244 
	C308.216736,748.070557 310.065704,746.508728 310.886108,744.736267 
	C316.256805,733.133606 321.372864,721.412720 326.527466,709.710815 
	C327.181335,708.226379 327.575195,706.627441 328.536987,703.736694 
	C326.326508,705.416321 325.405060,706.101196 324.499695,706.806702 
	C285.367889,737.299622 246.200241,767.746643 207.126175,798.313354 
	C192.593063,809.682251 178.279373,821.331665 163.211777,832.902771 
	C162.886154,833.148315 162.560516,833.393921 162.234894,833.639526 
	C162.982803,833.662720 163.730713,833.685974 165.119400,833.416626 
M367.205505,637.503174 
	C390.864624,619.957092 414.297485,602.095520 438.229828,584.930359 
	C488.524017,548.857666 539.077454,513.146423 589.540283,477.308929 
	C591.588989,475.853973 593.315796,474.779968 593.045776,471.512207 
	C591.771179,456.083496 590.918457,440.620361 589.842102,425.174591 
	C589.480103,419.980591 588.901733,414.801666 588.361023,408.953003 
	C585.071045,410.807465 582.612122,412.159363 580.185181,413.566467 
	C522.581726,446.964050 467.888885,484.872498 412.587860,521.834778 
	C410.961121,522.921997 409.660675,524.932251 408.890015,526.794373 
	C404.255402,537.992981 399.762299,549.251404 395.330200,560.532288 
	C385.374390,585.872375 375.482025,611.237427 365.184570,636.987976 
	C365.275909,637.503479 365.367249,638.018982 365.458588,638.534485 
	C365.830902,638.284119 366.203217,638.033752 367.205505,637.503174 
M322.128937,740.272339 
	C327.556915,737.387390 333.000488,734.531372 338.410583,731.613220 
	C425.143311,684.830017 512.237427,638.799744 604.440186,603.359009 
	C617.069031,598.504822 629.621765,593.452759 641.337585,588.835938 
	C632.815674,575.244629 623.480713,562.238403 616.175232,548.177795 
	C608.830017,534.040649 603.504761,518.853943 597.200928,503.905731 
	C595.553711,504.995544 593.007629,506.514252 590.638550,508.271576 
	C509.223236,568.661255 427.819366,629.066345 346.464966,689.538025 
	C344.969879,690.649292 343.809326,692.452454 342.970184,694.166565 
	C335.531433,709.361450 328.200684,724.609192 320.295532,740.042542 
	C320.295074,740.303101 320.294617,740.563721 320.294159,740.824341 
	C320.688385,740.723999 321.082611,740.623657 322.128937,740.272339 
M438.419403,453.985870 
	C430.513824,473.418365 422.608246,492.850891 414.150543,513.640564 
	C420.212158,509.811310 424.887054,506.937744 429.482697,503.942627 
	C481.451630,470.073029 532.409912,434.612946 586.562012,404.170380 
	C587.999023,403.362518 589.204529,400.884949 589.279785,399.132874 
	C589.586731,391.981659 589.445679,384.809540 589.408997,377.645477 
	C589.157837,328.607208 591.311523,279.677002 599.279846,231.252274 
	C607.028870,184.160004 616.273560,137.315598 624.355957,90.275513 
	C627.309448,73.086235 628.929993,55.660633 630.858459,38.309471 
	C631.195007,35.281109 630.036072,32.086525 629.567810,28.968712 
	C629.059509,28.932720 628.551270,28.896730 628.042969,28.860741 
	C626.338806,31.853014 624.573242,34.812256 622.940735,37.843102 
	C614.666138,53.204945 606.682800,68.729973 598.123413,83.930908 
	C576.660217,122.048492 556.611084,160.911591 540.088196,201.395981 
	C505.889191,285.190460 472.506073,369.317963 438.419403,453.985870 
M386.240906,559.697815 
	C389.812927,550.965515 393.384918,542.233276 396.956940,533.500977 
	C392.543182,535.032043 389.206421,537.163330 385.967194,539.433777 
	C317.163452,587.659180 252.018539,640.507324 188.797089,695.767700 
	C157.951172,722.729431 126.563507,749.133118 99.942009,780.546326 
	C88.320518,794.259644 76.042686,807.457764 67.590630,823.532227 
	C66.269943,826.043945 65.426064,828.806335 63.783516,832.890564 
	C67.892830,832.224365 70.485764,832.057312 72.930954,831.366943 
	C90.680779,826.355591 106.736580,817.565796 122.618668,808.524048 
	C171.271255,780.825928 217.191452,748.948303 262.406799,716.063354 
	C289.728088,696.192810 316.481323,675.541687 343.523438,655.286194 
	C348.073822,651.877686 350.908234,647.473511 353.007141,642.200378 
	C363.877045,614.891846 374.977936,587.675232 386.240906,559.697815 
M632.174988,384.651733 
	C623.294800,389.533936 614.458374,394.498688 605.506348,399.245331 
	C602.993286,400.577820 601.890747,402.172974 601.999023,405.049622 
	C602.587524,420.684479 603.004761,436.325714 603.569519,451.961578 
	C603.735229,456.551758 604.190063,461.131500 604.548218,466.225128 
	C606.331970,465.216034 607.510010,464.644165 608.589966,463.925018 
	C652.324585,434.801178 696.272461,405.988495 739.625732,376.307404 
	C750.896973,368.590698 760.609070,358.463562 770.429688,348.824432 
	C774.548157,344.782135 777.086121,339.129517 780.160278,334.484558 
	C775.407593,328.966461 770.007202,329.192200 764.743530,330.427490 
	C755.697693,332.550415 746.663391,334.836548 737.807434,337.634125 
	C701.069641,349.239532 666.676636,366.183716 632.174988,384.651733 
M820.493225,555.069702 
	C809.388306,555.886597 797.981384,555.359680 787.235596,557.774658 
	C756.156616,564.759277 725.307800,572.787964 694.447327,580.713379 
	C684.862793,583.174805 675.529846,586.615662 664.912292,589.978516 
	C668.348755,592.590088 670.561218,594.601257 673.068909,596.127258 
	C705.387390,615.793701 740.243469,623.018311 777.378601,615.308899 
	C804.186523,609.743469 827.542786,596.326416 848.938477,579.507690 
	C851.515564,577.481812 853.699829,574.844055 855.687012,572.204529 
	C859.244446,567.479431 858.319214,562.764160 853.217041,559.658569 
	C851.135437,558.391541 848.694214,557.264832 846.317566,557.014648 
	C838.061768,556.145569 829.762573,555.688782 820.493225,555.069702 
M284.610291,718.167358 
	C283.482574,718.516052 282.354828,718.864746 281.227112,719.213440 
	C282.016174,720.324524 282.355743,720.517395 282.525513,720.418579 
	C283.088013,720.091064 283.589294,719.658508 284.610291,718.167358 
z"/>
<path fill="#1F1F1F" opacity="1.000000" stroke="none" 
	d="
M438.603455,453.647186 
	C472.506073,369.317963 505.889191,285.190460 540.088196,201.395981 
	C556.611084,160.911591 576.660217,122.048492 598.123413,83.930908 
	C606.682800,68.729973 614.666138,53.204945 622.940735,37.843102 
	C624.573242,34.812256 626.338806,31.853014 628.042969,28.860741 
	C628.551270,28.896730 629.059509,28.932720 629.567810,28.968712 
	C630.036072,32.086525 631.195007,35.281109 630.858459,38.309471 
	C628.929993,55.660633 627.309448,73.086235 624.355957,90.275513 
	C616.273560,137.315598 607.028870,184.160004 599.279846,231.252274 
	C591.311523,279.677002 589.157837,328.607208 589.408997,377.645477 
	C589.445679,384.809540 589.586731,391.981659 589.279785,399.132874 
	C589.204529,400.884949 587.999023,403.362518 586.562012,404.170380 
	C532.409912,434.612946 481.451630,470.073029 429.482697,503.942627 
	C424.887054,506.937744 420.212158,509.811310 414.150543,513.640564 
	C422.608246,492.850891 430.513824,473.418365 438.603455,453.647186 
z"/>
<path fill="#1F1F1F" opacity="1.000000" stroke="none" 
	d="
M386.119629,560.062195 
	C374.977936,587.675232 363.877045,614.891846 353.007141,642.200378 
	C350.908234,647.473511 348.073822,651.877686 343.523438,655.286194 
	C316.481323,675.541687 289.728088,696.192810 262.406799,716.063354 
	C217.191452,748.948303 171.271255,780.825928 122.618668,808.524048 
	C106.736580,817.565796 90.680779,826.355591 72.930954,831.366943 
	C70.485764,832.057312 67.892830,832.224365 63.783516,832.890564 
	C65.426064,828.806335 66.269943,826.043945 67.590630,823.532227 
	C76.042686,807.457764 88.320518,794.259644 99.942009,780.546326 
	C126.563507,749.133118 157.951172,722.729431 188.797089,695.767700 
	C252.018539,640.507324 317.163452,587.659180 385.967194,539.433777 
	C389.206421,537.163330 392.543182,535.032043 396.956940,533.500977 
	C393.384918,542.233276 389.812927,550.965515 386.119629,560.062195 
z"/>
<path fill="#1F1F1F" opacity="1.000000" stroke="none" 
	d="
M320.838074,739.841309 
	C328.200684,724.609192 335.531433,709.361450 342.970184,694.166565 
	C343.809326,692.452454 344.969879,690.649292 346.464966,689.538025 
	C427.819366,629.066345 509.223236,568.661255 590.638550,508.271576 
	C593.007629,506.514252 595.553711,504.995544 597.200928,503.905731 
	C603.504761,518.853943 608.830017,534.040649 616.175232,548.177795 
	C623.480713,562.238403 632.815674,575.244629 641.337585,588.835938 
	C629.621765,593.452759 617.069031,598.504822 604.440186,603.359009 
	C512.237427,638.799744 425.143311,684.830017 338.410583,731.613220 
	C333.000488,734.531372 327.556915,737.387390 321.647034,740.223755 
	C321.165100,740.175110 320.838074,739.841309 320.838074,739.841309 
z"/>
<path fill="#1F1F1F" opacity="1.000000" stroke="none" 
	d="
M365.563843,636.592285 
	C375.482025,611.237427 385.374390,585.872375 395.330200,560.532288 
	C399.762299,549.251404 404.255402,537.992981 408.890015,526.794373 
	C409.660675,524.932251 410.961121,522.921997 412.587860,521.834778 
	C467.888885,484.872498 522.581726,446.964050 580.185181,413.566467 
	C582.612122,412.159363 585.071045,410.807465 588.361023,408.953003 
	C588.901733,414.801666 589.480103,419.980591 589.842102,425.174591 
	C590.918457,440.620361 591.771179,456.083496 593.045776,471.512207 
	C593.315796,474.779968 591.588989,475.853973 589.540283,477.308929 
	C539.077454,513.146423 488.524017,548.857666 438.229828,584.930359 
	C414.297485,602.095520 390.864624,619.957092 366.644287,637.339783 
	C365.910004,636.981689 365.736908,636.786987 365.563843,636.592285 
z"/>
<path fill="#202020" opacity="1.000000" stroke="none" 
	d="
M632.481689,384.446106 
	C666.676636,366.183716 701.069641,349.239532 737.807434,337.634125 
	C746.663391,334.836548 755.697693,332.550415 764.743530,330.427490 
	C770.007202,329.192200 775.407593,328.966461 780.160278,334.484558 
	C777.086121,339.129517 774.548157,344.782135 770.429688,348.824432 
	C760.609070,358.463562 750.896973,368.590698 739.625732,376.307404 
	C696.272461,405.988495 652.324585,434.801178 608.589966,463.925018 
	C607.510010,464.644165 606.331970,465.216034 604.548218,466.225128 
	C604.190063,461.131500 603.735229,456.551758 603.569519,451.961578 
	C603.004761,436.325714 602.587524,420.684479 601.999023,405.049622 
	C601.890747,402.172974 602.993286,400.577820 605.506348,399.245331 
	C614.458374,394.498688 623.294800,389.533936 632.481689,384.446106 
z"/>
<path fill="#202020" opacity="1.000000" stroke="none" 
	d="
M820.986572,555.072388 
	C829.762573,555.688782 838.061768,556.145569 846.317566,557.014648 
	C848.694214,557.264832 851.135437,558.391541 853.217041,559.658569 
	C858.319214,562.764160 859.244446,567.479431 855.687012,572.204529 
	C853.699829,574.844055 851.515564,577.481812 848.938477,579.507690 
	C827.542786,596.326416 804.186523,609.743469 777.378601,615.308899 
	C740.243469,623.018311 705.387390,615.793701 673.068909,596.127258 
	C670.561218,594.601257 668.348755,592.590088 664.912292,589.978516 
	C675.529846,586.615662 684.862793,583.174805 694.447327,580.713379 
	C725.307800,572.787964 756.156616,564.759277 787.235596,557.774658 
	C797.981384,555.359680 809.388306,555.886597 820.986572,555.072388 
z"/>
<path fill="#232323" opacity="1.000000" stroke="none" 
	d="
M163.865631,832.853149 
	C178.279373,821.331665 192.593063,809.682251 207.126175,798.313354 
	C246.200241,767.746643 285.367889,737.299622 324.499695,706.806702 
	C325.405060,706.101196 326.326508,705.416321 328.536987,703.736694 
	C327.575195,706.627441 327.181335,708.226379 326.527466,709.710815 
	C321.372864,721.412720 316.256805,733.133606 310.886108,744.736267 
	C310.065704,746.508728 308.216736,748.070557 306.474243,749.112244 
	C259.385406,777.262878 212.248352,805.333008 164.657745,833.340332 
	C164.085922,833.127075 163.975769,832.990112 163.865631,832.853149 
z"/>
<path fill="#1E1E1E" opacity="1.000000" stroke="none" 
	d="
M284.362183,718.716797 
	C283.589294,719.658508 283.088013,720.091064 282.525513,720.418579 
	C282.355743,720.517395 282.016174,720.324524 281.227112,719.213440 
	C282.354828,718.864746 283.482574,718.516052 284.362183,718.716797 
z"/>
<path fill="#232323" opacity="1.000000" stroke="none" 
	d="
M164.337357,833.486633 
	C163.730713,833.685974 162.982803,833.662720 162.234894,833.639526 
	C162.560516,833.393921 162.886154,833.148315 163.538696,832.877930 
	C163.975769,832.990112 164.085922,833.127075 164.337357,833.486633 
z"/>
<path fill="#1E1E1E" opacity="1.000000" stroke="none" 
	d="
M288.849884,713.848877 
	C289.380280,713.589661 289.910675,713.330505 290.441101,713.071350 
	C290.308411,713.575134 290.175751,714.078918 289.608765,714.457642 
	C289.066223,714.171387 288.958038,714.010132 288.849884,713.848877 
z"/>
<path fill="#1F1F1F" opacity="1.000000" stroke="none" 
	d="
M366.329285,637.479858 
	C366.203217,638.033752 365.830902,638.284119 365.458588,638.534485 
	C365.367249,638.018982 365.275909,637.503479 365.374207,636.790161 
	C365.736908,636.786987 365.910004,636.981689 366.329285,637.479858 
z"/>
<path fill="#1E1E1E" opacity="1.000000" stroke="none" 
	d="
M288.728516,715.513794 
	C288.126038,715.753052 287.523560,715.992310 286.921082,716.231567 
	C286.894379,715.842651 286.867737,715.453796 287.502991,715.073486 
	C288.352753,715.225952 288.540619,715.369873 288.728516,715.513794 
z"/>
<path fill="#1E1E1E" opacity="1.000000" stroke="none" 
	d="
M287.894226,714.852417 
	C287.861359,714.388428 288.099182,714.154175 288.593445,713.884399 
	C288.958038,714.010132 289.066223,714.171387 289.307007,714.591980 
	C289.362946,715.071289 289.228912,715.247620 288.882996,715.447021 
	C288.540619,715.369873 288.352753,715.225952 287.894226,714.852417 
z"/>
<path fill="#1F1F1F" opacity="1.000000" stroke="none" 
	d="
M321.320984,740.349243 
	C321.082611,740.623657 320.688385,740.723999 320.294128,740.824341 
	C320.294617,740.563721 320.295074,740.303101 320.566803,739.941895 
	C320.838074,739.841309 321.165100,740.175110 321.320984,740.349243 
z"/>
</svg>